<svg xmlns="http://www.w3.org/2000/svg" width="46" height="46" viewBox="0 0 46 46"><defs><style>.a{fill:#fff;stroke:#e4e4e4;stroke-width:0.7px;}.b,.d,.h{fill:none;}.b,.d{stroke:#222;stroke-width:1.2px;}.b{stroke-miterlimit:10;}.c{fill:#222;}.d{stroke-linecap:round;stroke-linejoin:round;}.e{fill:#11b542;opacity:0.8;}.f{fill:#40c367;opacity:0.795;}.g{stroke:none;}</style></defs><g transform="translate(-27 -373)"><g class="a" transform="translate(27 373)"><circle class="g" cx="23" cy="23" r="23"/><circle class="h" cx="23" cy="23" r="22.65"/></g><g transform="translate(-155.273 164.124)"><rect class="b" width="19.74" height="20.52" rx="9.87" transform="translate(195.477 222.369)"/><path class="b" d="M195.477,265.969a3.082,3.082,0,0,1,0-6.165" transform="translate(0 -29.763)"/><path class="b" d="M277.121,259.8a3.082,3.082,0,0,1,0,6.165" transform="translate(-61.904 -29.763)"/><path class="b" d="M235.2,281.868a3.082,3.082,0,1,1-6.164,0" transform="translate(-26.772 -45.884)"/><circle class="c" cx="1.182" cy="1.182" r="1.182" transform="translate(199.523 231.178)"/><circle class="c" cx="1.182" cy="1.182" r="1.182" transform="translate(208.429 231.178)"/><path class="d" d="M237.718,223.792v-3.7a1.547,1.547,0,0,1,1.613-1.027c1.32.029,1.437,1.5,1.437,1.5" transform="translate(-33.115 0)"/><rect class="b" width="19.74" height="20.52" rx="9.87" transform="translate(195.477 222.369)"/></g><ellipse class="e" cx="2.5" cy="1.5" rx="2.5" ry="1.5" transform="translate(41 398)"/><ellipse class="f" cx="2.5" cy="1.5" rx="2.5" ry="1.5" transform="translate(54 398)"/></g></svg>